# xmcd
#
# Track frame offsets:
#	150
#	16886
#	40659
#	56663
#	73023
#	87159
#	115223
#	129132
#	157575
#
# Disc length: 2432 seconds
#
# Revision: 1
# Processed by: cddbd v1.5.2PL0 Copyright (c) Steve Scherf et al.
# Submitted via: audiograbber 1.83.01
#
DISCID=62097e09
DTITLE=Mandel,Harvey - Get off in Chicago
DYEAR=1971
DGENRE=
TTITLE0=Jellyroll
TTITLE1=High-test fish line
TTITLE2=Local days
TTITLE3=Check me out
TTITLE4=Highway Blues
TTITLE5=I'm a lonely man
TTITLE6=Sweet Lynda
TTITLE7=Springfield Station Theme
TTITLE8=Race Track Daddy
EXTD=
EXTT0=
EXTT1=
EXTT2=
EXTT3=
EXTT4=
EXTT5=
EXTT6=
EXTT7=
EXTT8=
PLAYORDER=
